<svg xmlns="http://www.w3.org/2000/svg" viewBox="0 0 75.96 80.28"><defs><style>.cls-1{fill:none;stroke:#e68c22;stroke-linecap:round;stroke-linejoin:round;stroke-width:4px;}.cls-2{fill:#e58c25;}</style></defs><title>advantage2</title><g id="Layer_2" data-name="Layer 2"><path class="cls-1" d="M341.25,370.75s2.85,38.57-10.08,49.08c0,0-17.42,13.42-23.92,14.17,0,0-24-10.85-28.25-16.67,0,0-13-14.08-8.5-46.58a19.89,19.89,0,0,0,19-12.25s21.75-1.75,32.5,0C322,358.5,328.25,372.5,341.25,370.75Z" transform="translate(-267.55 -355.72)"/></g><g id="Layer_3" data-name="Layer 3"><path class="cls-2" d="M306,368.5V394h26.83V378.67s-12.33-2.83-15.17-10.17Z" transform="translate(-267.55 -355.72)"/><path class="cls-2" d="M306,394v30.67s-19.67-10-22.5-17.33c0,0-4-10-3.83-13.33Z" transform="translate(-267.55 -355.72)"/></g></svg>