<svg xmlns="http://www.w3.org/2000/svg" viewBox="0 0 88.55 59.88"><defs><style>.cls-1{fill:none;stroke:#e68c22;stroke-linecap:round;stroke-miterlimit:10;stroke-width:3px;}.cls-2{fill:#e68c22;}</style></defs><title>plane</title><g id="Layer_2" data-name="Layer 2"><path class="cls-1" d="M315.63,404.88l-14.87,18.38s-4.25,3.75-6-1.12L299.38,409" transform="translate(-261.63 -366.24)"/></g><g id="Layer_3" data-name="Layer 3"><path class="cls-1" d="M341.13,392.63,285.88,408s-10,1.88-13.5-1.75l-8.87-12s-2.12-5,3.88-2.5L275,396a10.82,10.82,0,0,0,7.88,0L299,391.05l-10.87-19.8s-2.37-4.62,7.5-3.25l23.25,17.88,18.63-4.37s16.38-2.75,9.5,7.63l-3.37,2.63Z" transform="translate(-261.63 -366.24)"/></g><g id="Layer_4" data-name="Layer 4"><circle class="cls-2" cx="27.12" cy="33.13" r="1.63"/><circle class="cls-2" cx="34.12" cy="31.13" r="1.63"/><circle class="cls-2" cx="41.12" cy="29.13" r="1.63"/><circle class="cls-2" cx="48.12" cy="27.13" r="1.63"/><circle class="cls-2" cx="55.12" cy="25.13" r="1.63"/><circle class="cls-2" cx="62.12" cy="23.13" r="1.63"/><circle class="cls-2" cx="69.12" cy="21.13" r="1.63"/></g></svg>