<svg xmlns="http://www.w3.org/2000/svg" viewBox="0 0 100.75 76.1"><defs><style>.cls-1,.cls-2,.cls-3{fill:none;stroke:#e68c22;stroke-width:3px;}.cls-1,.cls-2{stroke-linecap:round;}.cls-1,.cls-3{stroke-miterlimit:10;}.cls-2{stroke-linejoin:round;}</style></defs><title>Shipping</title><g id="Layer_4" data-name="Layer 4"><path class="cls-1" d="M306,397.33s-3.67,7.33-8.17,2.5c0,0-3.67,5-6.58-2.5" transform="translate(-256.75 -358.15)"/><line class="cls-1" x1="41.08" y1="41.69" x2="41.08" y2="29.09"/></g><g id="Layer_3" data-name="Layer 3"><polyline class="cls-2" points="61.54 64.2 77 35.6 51.75 25.1 25 35.1 40.69 64.2"/><polyline class="cls-2" points="67.39 31.61 67.39 21.85 51 15.85 34.5 21.85 34.5 31.55"/><path class="cls-3" d="M314.4,376.43V363.5s-6.74-8.67-13.57,0l.22,12.93" transform="translate(-256.75 -358.15)"/></g><g id="Layer_2" data-name="Layer 2"><path class="cls-2" d="M356,418s-5-5.5-10.75,0c0,0-5.5,8.5-10,2.25,0,0-5-8.25-11.5-2.25,0,0-4.5,9.1-11.5,1,0,0-5-7-11.75,0,0,0-3,7.45-10.25,1.2,0,0-6.75-9.45-11.75-1.1,0,0-5.75,7.65-11.25,0,0,0-6.5-6.15-9-1.65" transform="translate(-256.75 -358.15)"/><path class="cls-2" d="M356,428s-5-5.5-10.75,0c0,0-5.5,8.5-10,2.25,0,0-5-8.25-11.5-2.25,0,0-4.5,9.1-11.5,1,0,0-5-7-11.75,0,0,0-3,7.45-10.25,1.2,0,0-6.75-9.45-11.75-1.1,0,0-5.75,7.65-11.25,0,0,0-6.5-6.15-9-1.65" transform="translate(-256.75 -358.15)"/></g></svg>