<svg id="Layer_2" data-name="Layer 2" xmlns="http://www.w3.org/2000/svg" viewBox="0 0 49.33 75.5"><defs><style>.cls-1,.cls-2,.cls-3{fill:none;stroke:#e68c22;stroke-miterlimit:10;}.cls-1,.cls-2{stroke-width:3px;}.cls-2,.cls-3{stroke-linecap:round;}.cls-3{stroke-width:2px;}</style></defs><title>train</title><path class="cls-1" d="M325.67,417H286.83a4.25,4.25,0,0,1-3.83-2.67V373.67s2.5-6,6.33-6.33h34.83s4.17.83,4.17,7.17v39.83S327.67,417,325.67,417Z" transform="translate(-281 -358)"/><line class="cls-1" x1="2" y1="38.67" x2="47.33" y2="38.67"/><path class="cls-1" d="M323.83,392.17H287.67V375.5a4.3,4.3,0,0,1,4.33-3.67h28.17s3.17-.17,3.67,4.67Z" transform="translate(-281 -358)"/><line class="cls-2" x1="42.83" y1="20.67" x2="20.33" y2="20.67"/><line class="cls-2" x1="15.17" y1="20.67" x2="10.33" y2="20.67"/><polyline class="cls-2" points="34 59 34 54 16.17 54 16.17 59"/><polyline class="cls-2" points="12.75 9.33 12.75 5.33 16.17 5.33 16.17 1.5 34 1.5 34 5.42 37.67 5.42 37.67 9.33"/><line class="cls-3" x1="20.33" y1="5.42" x2="30.17" y2="5.42"/><line class="cls-3" x1="10.33" y1="59" x2="1" y2="74.5"/><line class="cls-3" x1="40" y1="59" x2="48.33" y2="74.5"/><line class="cls-3" x1="34" y1="59" x2="42.33" y2="74.5"/><line class="cls-3" x1="16.33" y1="59" x2="8" y2="74.5"/><line class="cls-3" x1="12.75" y1="65.66" x2="37.67" y2="65.66"/><circle class="cls-3" cx="12.17" cy="48.17" r="3"/><circle class="cls-3" cx="38.17" cy="48.17" r="3"/></svg>